<?xml version="1.0" encoding="UTF-8"?>
<svg width="358.37pt" height="399.09pt" version="1.2" viewBox="0 0 358.37 399.09" xmlns="http://www.w3.org/2000/svg">
 <g transform="translate(-120.53 -224.19)">
  <g>
   <path d="m202.05 234.01-42.227 37.074c7.7148 18.789 10.852 38.055 5.5781 56.004-4.4141 15.02-14.637 28.953-32.879 40.688 19.176 25.84 16.766 56.547 14.414 86.516-3.3164 42.242-6.5078 82.93 57.25 102.43l2.6172 0.80078 0.21093 2.7031c2.1719 27.543 21.402 30.828 43.559 34.609 16.363 2.7969 34.164 5.8398 49.141 17.848 14.973-12.008 32.773-15.051 49.137-17.848 22.16-3.7812 41.387-7.0664 43.559-34.609l0.21484-2.7031 2.6133-0.80078c63.762-19.5 60.566-60.188 57.25-102.43-2.3516-29.969-4.7617-60.676 14.418-86.516-18.242-11.734-28.469-25.668-32.883-40.688-5.2734-17.949-2.1328-37.215 5.5781-56.004l-42.223-37.074c-30.172 17.504-63.922 26.258-97.664 26.258-33.742 0-67.496-8.7539-97.664-26.258zm-49.637 32.977 48.734-42.797 2.4883 1.4961c29.516 17.723 62.789 26.582 96.078 26.582 33.285 0 66.559-8.8594 96.074-26.582l2.4922-1.4961 50.918 44.715-1.1562 2.6602c-7.8359 18.043-11.297 36.477-6.3633 53.273 4.1641 14.172 14.398 27.371 33.164 38.453l4.0547 2.3906-3.0234 3.6094c-20.152 24.055-17.754 54.598-15.418 84.375 3.5273 44.922 6.918 88.207-60.34 109.87-3.6094 31.258-25.172 34.945-49.922 39.172-16.262 2.7773-34.039 5.8164-47.809 18.176l-2.6719 2.3984-2.6719-2.3984c-13.773-12.359-31.551-15.398-47.812-18.176-24.75-4.2266-46.312-7.9141-49.918-39.172-67.258-21.664-63.871-64.949-60.344-109.87 2.3359-29.777 4.7344-60.32-15.418-84.375l-3.0234-3.6094 4.0547-2.3906c18.77-11.082 29-24.281 33.164-38.453 4.9336-16.797 1.4727-35.23-6.3633-53.273l-1.1562-2.6602z"/>
   <path d="m201.59 229.11-46.551 40.879c15.125 34.828 14.539 71.375-28.426 96.742 51.617 61.613-37.016 159.11 76.418 193.8 4.125 52.281 61.32 25.641 96.684 57.383 35.363-31.742 92.559-5.1016 96.68-57.383 113.43-34.691 24.801-132.19 76.418-193.8-42.965-25.367-43.551-61.914-28.422-96.742l-46.555-40.879c-60.312 36.215-135.93 36.215-196.25 0" fill="#1e3f99" fill-rule="evenodd"/>
   <path transform="matrix(1 0 0 -1 0 841.89)" d="m176.96 474.6-11.145-119.51h23.379l57.68-0.21875-12.234 119.51z" fill="#fff" fill-rule="evenodd" stroke="#000" stroke-miterlimit="22.926" stroke-width="1.5001"/>
  </g>
  <g fill="none" stroke="#000" stroke-miterlimit="22.926" stroke-width=".75">
   <path transform="matrix(1 0 0 -1 0 841.89)" d="m176.08 467.83 59.648-0.21875"/>
   <path transform="matrix(1 0 0 -1 0 841.89)" d="m175.43 460.84 60.523-0.21875"/>
   <path transform="matrix(1 0 0 -1 0 841.89)" d="m174.12 453.41 62.484-0.21875"/>
   <path transform="matrix(1 0 0 -1 0 841.89)" d="m174.34 446.64 62.484-0.4375"/>
   <path transform="matrix(1 0 0 -1 0 841.89)" d="m173.24 438.99h64.672"/>
   <path transform="matrix(1 0 0 -1 0 841.89)" d="m172.59 431.78 66.312-0.10937"/>
   <path transform="matrix(1 0 0 -1 0 841.89)" d="m171.28 417.36 68.387 0.4375"/>
   <path transform="matrix(1 0 0 -1 0 841.89)" d="m170.84 410.59h70.133"/>
   <path transform="matrix(1 0 0 -1 0 841.89)" d="m169.75 403.38h71.773"/>
   <path transform="matrix(1 0 0 -1 0 841.89)" d="m169.09 395.95 73.523 0.21875"/>
   <path transform="matrix(1 0 0 -1 0 841.89)" d="m168.98 388.52 73.742 0.21875"/>
   <path transform="matrix(1 0 0 -1 0 841.89)" d="m167.78 381.64 76.25-0.10938"/>
   <path transform="matrix(1 0 0 -1 0 841.89)" d="m167.56 374.76h76.688"/>
   <path transform="matrix(1 0 0 -1 0 841.89)" d="m166.91 367.33h78.438"/>
   <path transform="matrix(1 0 0 -1 0 841.89)" d="m166.03 360.56 79.969-0.21875"/>
   <path transform="matrix(1 0 0 -1 0 841.89)" d="m180.67 474.6v-6.7734"/>
   <path transform="matrix(1 0 0 -1 0 841.89)" d="m195.53 474.06v-6.0078"/>
   <path transform="matrix(1 0 0 -1 0 841.89)" d="m210.17 474.28v-6.7734"/>
   <path transform="matrix(1 0 0 -1 0 841.89)" d="m225.9 474.06v-6.7734"/>
   <path transform="matrix(1 0 0 -1 0 841.89)" d="m188.54 467.72v-6.7734"/>
   <path transform="matrix(1 0 0 -1 0 841.89)" d="m202.96 467.5v-6.7734"/>
   <path transform="matrix(1 0 0 -1 0 841.89)" d="m218.91 467.5v-6.7734"/>
   <path transform="matrix(1 0 0 -1 0 841.89)" d="m233.33 467.94v-7.3203"/>
   <path transform="matrix(1 0 0 -1 0 841.89)" d="m233.33 452.87v-6.7734"/>
   <path transform="matrix(1 0 0 -1 0 841.89)" d="m225.9 460.3v-6.7734"/>
   <path transform="matrix(1 0 0 -1 0 841.89)" d="m218.91 453.3v-6.7734"/>
   <path transform="matrix(1 0 0 -1 0 841.89)" d="m210.39 460.73 0.10937-7.3164"/>
   <path transform="matrix(1 0 0 -1 0 841.89)" d="m195.53 460.73 0.10938-7.4258"/>
   <path transform="matrix(1 0 0 -1 0 841.89)" d="m180.89 460.51v-6.7734"/>
   <path transform="matrix(1 0 0 -1 0 841.89)" d="m180.78 446.86v-7.5391"/>
   <path transform="matrix(1 0 0 -1 0 841.89)" d="m195.53 446.31 0.10938-7.3203"/>
   <path transform="matrix(1 0 0 -1 0 841.89)" d="m209.95 446.09v-6.7734"/>
   <path transform="matrix(1 0 0 -1 0 841.89)" d="m188.32 438.23v-6.7695"/>
   <path transform="matrix(1 0 0 -1 0 841.89)" d="m203.07 439.1 0.10937-7.3203"/>
   <path transform="matrix(1 0 0 -1 0 841.89)" d="m218.91 438.99v-7.3203"/>
   <path transform="matrix(1 0 0 -1 0 841.89)" d="m234.2 438.66v-6.9922"/>
   <path transform="matrix(1 0 0 -1 0 841.89)" d="m180.45 417.25v-6.7734"/>
   <path transform="matrix(1 0 0 -1 0 841.89)" d="m195.42 417.47v-6.7734"/>
   <path transform="matrix(1 0 0 -1 0 841.89)" d="m209.95 417.47v-6.7734"/>
   <path transform="matrix(1 0 0 -1 0 841.89)" d="m225.9 417.58v-6.7734"/>
   <path transform="matrix(1 0 0 -1 0 841.89)" d="m233.76 410.26v-6.7734"/>
   <path transform="matrix(1 0 0 -1 0 841.89)" d="m219.12 410.48 0.10937-6.9922"/>
   <path transform="matrix(1 0 0 -1 0 841.89)" d="m188.54 410.59v-7.3203"/>
   <path transform="matrix(1 0 0 -1 0 841.89)" d="m173.9 410.26v-6.7734"/>
   <path transform="matrix(1 0 0 -1 0 841.89)" d="m195.53 403.05v-6.7734"/>
   <path transform="matrix(1 0 0 -1 0 841.89)" d="m210.39 403.05v-6.7734"/>
   <path transform="matrix(1 0 0 -1 0 841.89)" d="m240.86 403.05-0.10937-6.8789"/>
   <path transform="matrix(1 0 0 -1 0 841.89)" d="m240.75 388.41v-6.7734"/>
   <path transform="matrix(1 0 0 -1 0 841.89)" d="m226.23 388.74-0.10937-7.3203"/>
   <path transform="matrix(1 0 0 -1 0 841.89)" d="m233.54 395.95v-6.9922"/>
   <path transform="matrix(1 0 0 -1 0 841.89)" d="m218.91 396.39 0.21875-8.8476"/>
   <path transform="matrix(1 0 0 -1 0 841.89)" d="m188.54 395.95v-7.7578"/>
   <path transform="matrix(1 0 0 -1 0 841.89)" d="m173.57 395.95 0.10938-7.7578"/>
   <path transform="matrix(1 0 0 -1 0 841.89)" d="m180.89 388.19v-6.7734"/>
   <path transform="matrix(1 0 0 -1 0 841.89)" d="m173.46 381.64 0.10937-6.8828"/>
   <path transform="matrix(1 0 0 -1 0 841.89)" d="m180.67 374.87v-7.6484"/>
   <path transform="matrix(1 0 0 -1 0 841.89)" d="m174.12 367v-6.7734"/>
   <path transform="matrix(1 0 0 -1 0 841.89)" d="m180.45 360.23v-5.3555"/>
   <path transform="matrix(1 0 0 -1 0 841.89)" d="m226.34 360.34 0.10937-5.4648"/>
   <path transform="matrix(1 0 0 -1 0 841.89)" d="m240.75 360.34 0.10937-5.3555"/>
   <path transform="matrix(1 0 0 -1 0 841.89)" d="m240.97 374.76v-7.3203"/>
   <path transform="matrix(1 0 0 -1 0 841.89)" d="m225.68 374.98 0.21875-7.9727"/>
  </g>
  <g stroke="#000" stroke-miterlimit="22.926">
   <g stroke-width="1.5001">
    <path transform="matrix(1 0 0 -1 0 841.89)" d="m172.59 430.03c-5.9102-0.14453-5.8828-9.9062-0.65235-10.27l68.383 0.21875c5.625-0.72656 6.4883 10.668-1.3086 10.16z" fill="#fff" fill-rule="evenodd"/>
    <path transform="matrix(1 0 0 -1 0 841.89)" d="m176.52 474.39-8.5195 5.4648-0.21875 19.441h5.6797l-0.21875-12.234h6.9922v12.234h10.051v-12.453h6.5547l-0.15625 12.637 13.109 0.15234 0.15625-12.352h6.3359v12.234h12.234v-12.234h7.6992l-0.15234 12.391h5.832l-0.15235-18.789-6.6719-6.4922z" fill="#fff" fill-rule="evenodd"/>
    <path transform="matrix(1 0 0 -1 0 841.89)" d="m167.78 480.5 73.836 0.15625" fill="none"/>
   </g>
   <path transform="matrix(1 0 0 -1 0 841.89)" d="m188.28 355.25h32.445l-0.46485 26.262c0.3711 18.273-29.867 22.645-31.516 0.3086z" fill="#a67a4f" fill-rule="evenodd" stroke-width="2.2501"/>
  </g>
  <g fill="none" stroke="#000" stroke-miterlimit="22.926" stroke-width=".75">
   <path transform="matrix(1 0 0 -1 0 841.89)" d="m196.78 394.34 7.4141-7.1055 7.7266 6.7969"/>
   <path transform="matrix(1 0 0 -1 0 841.89)" d="m194.46 392.33 9.8906-8.6523 10.195 8.6523"/>
   <path transform="matrix(1 0 0 -1 0 841.89)" d="m191.99 390.32 12.203-10.508 12.516 10.352"/>
   <path transform="matrix(1 0 0 -1 0 841.89)" d="m190.29 387.23 14.059-11.277 14.059 11.277"/>
   <path transform="matrix(1 0 0 -1 0 841.89)" d="m189.52 383.83 14.832-12.051 15.293 12.203"/>
   <path transform="matrix(1 0 0 -1 0 841.89)" d="m189.67 379.66 14.68-11.742 15.602 12.207"/>
   <path transform="matrix(1 0 0 -1 0 841.89)" d="m189.05 376.26 15.297-12.516 15.91 13.133"/>
   <path transform="matrix(1 0 0 -1 0 841.89)" d="m189.21 372.24 15.141-12.047 15.602 12.512"/>
   <path transform="matrix(1 0 0 -1 0 841.89)" d="m188.9 369.62 15.293-12.824 15.449 11.434"/>
   <path transform="matrix(1 0 0 -1 0 841.89)" d="m188.74 365.6 12.203-10.66 6.0274 0.15234 12.824 9.5781"/>
   <path transform="matrix(1 0 0 -1 0 841.89)" d="m188.28 362.35 8.5-7.5703h15.293l7.7266 5.7188"/>
  </g>
  <path d="m182.25 447.4 6.0234-0.15235v-9.2695c1.2422-3.5312-6.2969-5.3398-6.332 0z" fill="#211e1e" fill-rule="evenodd"/>
  <path transform="matrix(1 0 0 -1 0 841.89)" d="m202.96 355.09v41.559h2.9336l0.15625-41.559z" fill="#a67a4f" fill-rule="evenodd" stroke="#000" stroke-miterlimit="22.926" stroke-width=".75"/>
  <path transform="matrix(1 0 0 -1 0 841.89)" d="m188.28 355.25h32.445l-0.46485 26.262c0.3711 18.273-29.867 22.645-31.516 0.3086z" fill="none" stroke="#000" stroke-miterlimit="22.926" stroke-width="2.2501"/>
  <g fill="#211e1e" fill-rule="evenodd">
   <path d="m202.68 440.95 6.0274-0.15235v-9.2695c0.69531-3.3164-6.3008-5.3398-6.3359 0z"/>
   <path d="m223.08 447.44 6.0234-0.15234v-9.2695c1.2422-3.207-6.2969-5.3398-6.332 0z"/>
   <path d="m220.61 404.8 6.0234-0.1875v-11.168c0.60937-3.7031-5.957-6.4336-6.332 0z"/>
   <path d="m202.68 395.57 6.0274-0.1875v-11.168c1.168-2.9375-5.9766-6.4336-6.3359 0z"/>
   <path d="m185.07 404.84 6.0274-0.0781v-11.277c1.0312-2.9375-5.832-6.4336-6.3359 0z"/>
  </g>
  <g fill="none" stroke="#000" stroke-miterlimit="22.926" stroke-width=".75">
   <path transform="matrix(1 0 0 -1 0 841.89)" d="m239.99 417.47c0.0742-2.1133 0.14844-8.3203 0.21875-6.3359"/>
   <path transform="matrix(1 0 0 -1 0 841.89)" d="m233.76 381.86v-6.9922"/>
   <path transform="matrix(1 0 0 -1 0 841.89)" d="m233.76 367.66v-6.9922"/>
   <path transform="matrix(1 0 0 -1 0 841.89)" d="m187.83 420.09 0.21875-2.5117"/>
   <path transform="matrix(1 0 0 -1 0 841.89)" d="m173.95 420.09-0.10937-2.7305"/>
   <path transform="matrix(1 0 0 -1 0 841.89)" d="m202.79 420.2-0.10938-2.293"/>
   <path transform="matrix(1 0 0 -1 0 841.89)" d="m218.2 419.98v-1.9648"/>
   <path transform="matrix(1 0 0 -1 0 841.89)" d="m233.82 419.87-0.10938-2.4023"/>
   <path transform="matrix(1 0 0 -1 0 841.89)" d="m180.18 432.11-0.10938-2.4023"/>
   <path transform="matrix(1 0 0 -1 0 841.89)" d="m196.24 432-0.10937-2.4023"/>
   <path transform="matrix(1 0 0 -1 0 841.89)" d="m210.66 432.11-0.10547-2.4023"/>
   <path transform="matrix(1 0 0 -1 0 841.89)" d="m227.15 432-0.10937-2.4023"/>
  </g>
  <path transform="matrix(1 0 0 -1 0 841.89)" d="m366.93 474.31-11.145-119.51h23.379l57.68-0.21875-12.234 119.51z" fill="#fff" fill-rule="evenodd" stroke="#000" stroke-miterlimit="22.926" stroke-width="1.5001"/>
  <g fill="none" stroke="#000" stroke-miterlimit="22.926" stroke-width=".75">
   <path transform="matrix(1 0 0 -1 0 841.89)" d="m366.05 467.54 59.648-0.21875"/>
   <path transform="matrix(1 0 0 -1 0 841.89)" d="m365.4 460.55 60.523-0.21875"/>
   <path transform="matrix(1 0 0 -1 0 841.89)" d="m364.09 453.12 62.488-0.21875"/>
   <path transform="matrix(1 0 0 -1 0 841.89)" d="m364.31 446.34 62.484-0.4375"/>
   <path transform="matrix(1 0 0 -1 0 841.89)" d="m363.21 438.7h64.672"/>
   <path transform="matrix(1 0 0 -1 0 841.89)" d="m362.56 431.49 66.312-0.10938"/>
   <path transform="matrix(1 0 0 -1 0 841.89)" d="m361.25 417.07 68.387 0.4375"/>
   <path transform="matrix(1 0 0 -1 0 841.89)" d="m360.81 410.29h70.133"/>
   <path transform="matrix(1 0 0 -1 0 841.89)" d="m359.72 403.09h71.773"/>
   <path transform="matrix(1 0 0 -1 0 841.89)" d="m359.06 395.66 73.523 0.21875"/>
   <path transform="matrix(1 0 0 -1 0 841.89)" d="m358.96 388.23 73.738 0.21875"/>
   <path transform="matrix(1 0 0 -1 0 841.89)" d="m357.75 381.35 76.25-0.10937"/>
   <path transform="matrix(1 0 0 -1 0 841.89)" d="m357.54 374.46h76.688"/>
   <path transform="matrix(1 0 0 -1 0 841.89)" d="m356.88 367.03h78.438"/>
   <path transform="matrix(1 0 0 -1 0 841.89)" d="m356 360.26 79.969-0.21875"/>
   <path transform="matrix(1 0 0 -1 0 841.89)" d="m370.64 474.31v-6.7734"/>
   <path transform="matrix(1 0 0 -1 0 841.89)" d="m385.5 473.76v-6.0078"/>
   <path transform="matrix(1 0 0 -1 0 841.89)" d="m400.14 473.98v-6.7734"/>
   <path transform="matrix(1 0 0 -1 0 841.89)" d="m415.87 473.76v-6.7734"/>
   <path transform="matrix(1 0 0 -1 0 841.89)" d="m378.51 467.43v-6.7734"/>
   <path transform="matrix(1 0 0 -1 0 841.89)" d="m392.93 467.21v-6.7734"/>
   <path transform="matrix(1 0 0 -1 0 841.89)" d="m408.88 467.21v-6.7734"/>
   <path transform="matrix(1 0 0 -1 0 841.89)" d="m423.3 467.65v-7.3203"/>
   <path transform="matrix(1 0 0 -1 0 841.89)" d="m423.3 452.57v-6.7734"/>
   <path transform="matrix(1 0 0 -1 0 841.89)" d="m415.87 460v-6.7734"/>
   <path transform="matrix(1 0 0 -1 0 841.89)" d="m408.88 453.01v-6.7734"/>
   <path transform="matrix(1 0 0 -1 0 841.89)" d="m400.36 460.44 0.10938-7.3203"/>
   <path transform="matrix(1 0 0 -1 0 841.89)" d="m385.5 460.44 0.10937-7.4297"/>
   <path transform="matrix(1 0 0 -1 0 841.89)" d="m370.86 460.22v-6.7734"/>
   <path transform="matrix(1 0 0 -1 0 841.89)" d="m370.75 446.56v-7.5352"/>
   <path transform="matrix(1 0 0 -1 0 841.89)" d="m385.5 446.01 0.10937-7.3164"/>
   <path transform="matrix(1 0 0 -1 0 841.89)" d="m399.92 445.8v-6.7695"/>
   <path transform="matrix(1 0 0 -1 0 841.89)" d="m378.29 437.93v-6.7734"/>
   <path transform="matrix(1 0 0 -1 0 841.89)" d="m393.04 438.81 0.10938-7.3203"/>
   <path transform="matrix(1 0 0 -1 0 841.89)" d="m408.88 438.7v-7.3203"/>
   <path transform="matrix(1 0 0 -1 0 841.89)" d="m424.17 438.37v-6.9922"/>
   <path transform="matrix(1 0 0 -1 0 841.89)" d="m370.43 416.96v-6.7695"/>
   <path transform="matrix(1 0 0 -1 0 841.89)" d="m385.39 417.17v-6.7734"/>
   <path transform="matrix(1 0 0 -1 0 841.89)" d="m399.92 417.17v-6.7734"/>
   <path transform="matrix(1 0 0 -1 0 841.89)" d="m415.87 417.28v-6.7734"/>
   <path transform="matrix(1 0 0 -1 0 841.89)" d="m423.73 409.97v-6.7734"/>
   <path transform="matrix(1 0 0 -1 0 841.89)" d="m409.1 410.19 0.10937-6.9922"/>
   <path transform="matrix(1 0 0 -1 0 841.89)" d="m378.51 410.29v-7.3164"/>
   <path transform="matrix(1 0 0 -1 0 841.89)" d="m363.87 409.97v-6.7734"/>
   <path transform="matrix(1 0 0 -1 0 841.89)" d="m385.5 402.76v-6.7734"/>
   <path transform="matrix(1 0 0 -1 0 841.89)" d="m400.36 402.76v-6.7734"/>
   <path transform="matrix(1 0 0 -1 0 841.89)" d="m430.84 402.76-0.10938-6.8828"/>
   <path transform="matrix(1 0 0 -1 0 841.89)" d="m430.73 388.12v-6.7734"/>
   <path transform="matrix(1 0 0 -1 0 841.89)" d="m416.2 388.44-0.10938-7.3164"/>
   <path transform="matrix(1 0 0 -1 0 841.89)" d="m423.52 395.66v-6.9922"/>
   <path transform="matrix(1 0 0 -1 0 841.89)" d="m408.88 396.09 0.21875-8.8476"/>
   <path transform="matrix(1 0 0 -1 0 841.89)" d="m378.51 395.66v-7.7578"/>
   <path transform="matrix(1 0 0 -1 0 841.89)" d="m363.54 395.66 0.10937-7.7578"/>
   <path transform="matrix(1 0 0 -1 0 841.89)" d="m370.86 387.9v-6.7695"/>
   <path transform="matrix(1 0 0 -1 0 841.89)" d="m363.43 381.35 0.10938-6.8828"/>
   <path transform="matrix(1 0 0 -1 0 841.89)" d="m370.64 374.57v-7.6484"/>
   <path transform="matrix(1 0 0 -1 0 841.89)" d="m364.09 366.71v-6.7734"/>
   <path transform="matrix(1 0 0 -1 0 841.89)" d="m370.43 359.93v-5.3516"/>
   <path transform="matrix(1 0 0 -1 0 841.89)" d="m416.31 360.04 0.10938-5.4609"/>
   <path transform="matrix(1 0 0 -1 0 841.89)" d="m430.73 360.04 0.10938-5.3516"/>
   <path transform="matrix(1 0 0 -1 0 841.89)" d="m430.95 374.46v-7.3203"/>
   <path transform="matrix(1 0 0 -1 0 841.89)" d="m415.65 374.68 0.21875-7.9766"/>
  </g>
  <g stroke="#000" stroke-miterlimit="22.926">
   <g stroke-width="1.5001">
    <path transform="matrix(1 0 0 -1 0 841.89)" d="m362.56 429.74c-5.9102-0.14454-5.8828-9.9024-0.65234-10.266l68.383 0.21875c5.625-0.73047 6.4883 10.668-1.3086 10.16z" fill="#fff" fill-rule="evenodd"/>
    <path transform="matrix(1 0 0 -1 0 841.89)" d="m366.49 474.09-8.5195 5.4609-0.21875 19.445h5.6797l-0.21875-12.234h6.9922v12.234h10.051v-12.453h6.5547l-0.15625 12.633 13.109 0.15625 0.15625-12.352h6.3359v12.234h12.234v-12.234h7.6992l-0.15235 12.387h5.832l-0.15234-18.789-6.6719-6.4883z" fill="#fff" fill-rule="evenodd"/>
    <path transform="matrix(1 0 0 -1 0 841.89)" d="m357.75 480.21 73.836 0.15235" fill="none"/>
   </g>
   <path transform="matrix(1 0 0 -1 0 841.89)" d="m378.25 354.95h32.445l-0.46484 26.266c0.37109 18.27-29.867 22.645-31.516 0.3086z" fill="#a67a4f" fill-rule="evenodd" stroke-width="2.2501"/>
  </g>
  <g fill="none" stroke="#000" stroke-miterlimit="22.926" stroke-width=".75">
   <path transform="matrix(1 0 0 -1 0 841.89)" d="m386.75 394.04 7.4141-7.1094 7.7266 6.7969"/>
   <path transform="matrix(1 0 0 -1 0 841.89)" d="m384.43 392.03 9.8906-8.6484 10.195 8.6484"/>
   <path transform="matrix(1 0 0 -1 0 841.89)" d="m381.96 390.02 12.203-10.504 12.516 10.352"/>
   <path transform="matrix(1 0 0 -1 0 841.89)" d="m380.26 386.93 14.059-11.277 14.059 11.277"/>
   <path transform="matrix(1 0 0 -1 0 841.89)" d="m379.49 383.53 14.832-12.051 15.293 12.207"/>
   <path transform="matrix(1 0 0 -1 0 841.89)" d="m379.64 379.36 14.68-11.738 15.602 12.203"/>
   <path transform="matrix(1 0 0 -1 0 841.89)" d="m379.02 375.96 15.297-12.512 15.91 13.129"/>
   <path transform="matrix(1 0 0 -1 0 841.89)" d="m379.18 371.95 15.141-12.051 15.602 12.516"/>
   <path transform="matrix(1 0 0 -1 0 841.89)" d="m378.87 369.32 15.293-12.824 15.449 11.434"/>
   <path transform="matrix(1 0 0 -1 0 841.89)" d="m378.71 365.3 12.207-10.66 6.0234 0.15625 12.824 9.5781"/>
   <path transform="matrix(1 0 0 -1 0 841.89)" d="m378.25 362.06 8.5-7.5703h15.293l7.7266 5.7148"/>
  </g>
  <path d="m372.23 447.7 6.0274-0.15625v-9.2695c1.2383-3.5312-6.3008-5.3359-6.3359 0z" fill="#211e1e" fill-rule="evenodd"/>
  <path transform="matrix(1 0 0 -1 0 841.89)" d="m392.93 354.8v41.559h2.9336l0.15625-41.559z" fill="#a67a4f" fill-rule="evenodd" stroke="#000" stroke-miterlimit="22.926" stroke-width=".75"/>
  <path transform="matrix(1 0 0 -1 0 841.89)" d="m378.25 354.95h32.445l-0.46484 26.266c0.37109 18.27-29.867 22.645-31.516 0.3086z" fill="none" stroke="#000" stroke-miterlimit="22.926" stroke-width="2.2501"/>
  <g fill="#211e1e" fill-rule="evenodd">
   <path d="m392.66 441.25 6.0273-0.15625v-9.2695c0.69532-3.3125-6.2969-5.3398-6.3359 0z"/>
   <path d="m413.05 447.73 6.0234-0.15625v-9.2695c1.2422-3.2031-6.2969-5.3398-6.332 0z"/>
   <path d="m410.58 405.09 6.0234-0.18359v-11.172c0.61328-3.7031-5.957-6.4336-6.332 0z"/>
   <path d="m392.66 395.86 6.0273-0.1875v-11.168c1.168-2.9414-5.9766-6.4336-6.3359 0z"/>
   <path d="m375.04 405.13 6.0273-0.0781v-11.277c1.0312-2.9414-5.832-6.4336-6.3359 0z"/>
  </g>
  <g fill="none" stroke="#000" stroke-miterlimit="22.926" stroke-width=".75">
   <path transform="matrix(1 0 0 -1 0 841.89)" d="m429.96 417.17c0.0742-2.1094 0.14843-8.3203 0.21875-6.3359"/>
   <path transform="matrix(1 0 0 -1 0 841.89)" d="m423.73 381.56v-6.9883"/>
   <path transform="matrix(1 0 0 -1 0 841.89)" d="m423.73 367.36v-6.9922"/>
   <path transform="matrix(1 0 0 -1 0 841.89)" d="m377.8 419.8 0.21875-2.5156"/>
   <path transform="matrix(1 0 0 -1 0 841.89)" d="m363.93 419.8-0.10937-2.7344"/>
   <path transform="matrix(1 0 0 -1 0 841.89)" d="m392.77 419.91-0.10937-2.2969"/>
   <path transform="matrix(1 0 0 -1 0 841.89)" d="m408.17 419.69v-1.9688"/>
   <path transform="matrix(1 0 0 -1 0 841.89)" d="m423.79 419.58-0.10937-2.4062"/>
   <path transform="matrix(1 0 0 -1 0 841.89)" d="m370.15 431.82-0.10937-2.4023"/>
   <path transform="matrix(1 0 0 -1 0 841.89)" d="m386.21 431.71-0.10938-2.4024"/>
   <path transform="matrix(1 0 0 -1 0 841.89)" d="m400.63 431.82-0.10937-2.4023"/>
   <path transform="matrix(1 0 0 -1 0 841.89)" d="m417.12 431.71-0.10938-2.4024"/>
  </g>
  <path transform="matrix(1 0 0 -1 0 841.89)" d="m266.76 496.02-13.09-140.38h27.461l67.754-0.25781-14.371 140.39z" fill="#fff" fill-rule="evenodd" stroke="#000" stroke-miterlimit="22.926" stroke-width="1.762"/>
  <g fill="none" stroke="#000" stroke-miterlimit="22.926" stroke-width=".881">
   <path transform="matrix(1 0 0 -1 0 841.89)" d="m265.73 488.07 70.062-0.25781"/>
   <path transform="matrix(1 0 0 -1 0 841.89)" d="m264.96 479.85 71.09-0.25782"/>
   <path transform="matrix(1 0 0 -1 0 841.89)" d="m263.42 471.12 73.402-0.2539"/>
   <path transform="matrix(1 0 0 -1 0 841.89)" d="m263.68 463.17 73.402-0.51563"/>
   <path transform="matrix(1 0 0 -1 0 841.89)" d="m262.39 454.19h75.965"/>
   <path transform="matrix(1 0 0 -1 0 841.89)" d="m261.62 445.72 77.891-0.1289"/>
   <path transform="matrix(1 0 0 -1 0 841.89)" d="m260.08 428.78 80.332 0.51562"/>
   <path transform="matrix(1 0 0 -1 0 841.89)" d="m259.57 420.82h82.383"/>
   <path transform="matrix(1 0 0 -1 0 841.89)" d="m258.29 412.35h84.309"/>
   <path transform="matrix(1 0 0 -1 0 841.89)" d="m257.52 403.63 86.363 0.25391"/>
   <path transform="matrix(1 0 0 -1 0 841.89)" d="m257.39 394.9 86.621 0.25781"/>
   <path transform="matrix(1 0 0 -1 0 841.89)" d="m255.98 386.82 89.57-0.12891"/>
   <path transform="matrix(1 0 0 -1 0 841.89)" d="m255.72 378.73h90.086"/>
   <path transform="matrix(1 0 0 -1 0 841.89)" d="m254.95 370.01h92.137"/>
   <path transform="matrix(1 0 0 -1 0 841.89)" d="m253.92 362.05 93.934-0.25782"/>
   <path transform="matrix(1 0 0 -1 0 841.89)" d="m271.12 496.02v-7.9531"/>
   <path transform="matrix(1 0 0 -1 0 841.89)" d="m288.57 495.38v-7.0586"/>
   <path transform="matrix(1 0 0 -1 0 841.89)" d="m305.77 495.64v-7.957"/>
   <path transform="matrix(1 0 0 -1 0 841.89)" d="m324.25 495.38v-7.957"/>
   <path transform="matrix(1 0 0 -1 0 841.89)" d="m280.36 487.94v-7.957"/>
   <path transform="matrix(1 0 0 -1 0 841.89)" d="m297.3 487.68v-7.957"/>
   <path transform="matrix(1 0 0 -1 0 841.89)" d="m316.03 487.68v-7.957"/>
   <path transform="matrix(1 0 0 -1 0 841.89)" d="m332.97 488.19v-8.5977"/>
   <path transform="matrix(1 0 0 -1 0 841.89)" d="m332.97 470.48v-7.957"/>
   <path transform="matrix(1 0 0 -1 0 841.89)" d="m324.25 479.21v-7.957"/>
   <path transform="matrix(1 0 0 -1 0 841.89)" d="m316.03 471v-7.9531"/>
   <path transform="matrix(1 0 0 -1 0 841.89)" d="m306.02 479.72 0.1289-8.5977"/>
   <path transform="matrix(1 0 0 -1 0 841.89)" d="m288.57 479.72 0.12891-8.7266"/>
   <path transform="matrix(1 0 0 -1 0 841.89)" d="m271.38 479.47v-7.957"/>
   <path transform="matrix(1 0 0 -1 0 841.89)" d="m271.25 463.42v-8.8555"/>
   <path transform="matrix(1 0 0 -1 0 841.89)" d="m288.57 462.78 0.12891-8.5977"/>
   <path transform="matrix(1 0 0 -1 0 841.89)" d="m305.51 462.53v-7.957"/>
   <path transform="matrix(1 0 0 -1 0 841.89)" d="m280.1 453.29v-7.957"/>
   <path transform="matrix(1 0 0 -1 0 841.89)" d="m297.43 454.32 0.12891-8.5977"/>
   <path transform="matrix(1 0 0 -1 0 841.89)" d="m316.03 454.19v-8.5976"/>
   <path transform="matrix(1 0 0 -1 0 841.89)" d="m334 453.8v-8.2109"/>
   <path transform="matrix(1 0 0 -1 0 841.89)" d="m270.86 428.65v-7.957"/>
   <path transform="matrix(1 0 0 -1 0 841.89)" d="m288.44 428.91v-7.9531"/>
   <path transform="matrix(1 0 0 -1 0 841.89)" d="m305.51 428.91v-7.9531"/>
   <path transform="matrix(1 0 0 -1 0 841.89)" d="m324.25 429.03v-7.957"/>
   <path transform="matrix(1 0 0 -1 0 841.89)" d="m333.48 420.44v-7.957"/>
   <path transform="matrix(1 0 0 -1 0 841.89)" d="m316.29 420.69 0.12891-8.2148"/>
   <path transform="matrix(1 0 0 -1 0 841.89)" d="m280.36 420.82v-8.5976"/>
   <path transform="matrix(1 0 0 -1 0 841.89)" d="m263.16 420.44v-7.957"/>
   <path transform="matrix(1 0 0 -1 0 841.89)" d="m288.57 411.97v-7.957"/>
   <path transform="matrix(1 0 0 -1 0 841.89)" d="m306.02 411.97v-7.957"/>
   <path transform="matrix(1 0 0 -1 0 841.89)" d="m341.82 411.97-0.12891-8.0859"/>
   <path transform="matrix(1 0 0 -1 0 841.89)" d="m341.7 394.77v-7.957"/>
   <path transform="matrix(1 0 0 -1 0 841.89)" d="m324.63 395.16-0.12891-8.5977"/>
   <path transform="matrix(1 0 0 -1 0 841.89)" d="m333.23 403.63v-8.2148"/>
   <path transform="matrix(1 0 0 -1 0 841.89)" d="m316.03 404.14 0.25781-10.395"/>
   <path transform="matrix(1 0 0 -1 0 841.89)" d="m280.36 403.63v-9.1133"/>
   <path transform="matrix(1 0 0 -1 0 841.89)" d="m262.78 403.63 0.12891-9.1133"/>
   <path transform="matrix(1 0 0 -1 0 841.89)" d="m271.38 394.51v-7.9531"/>
   <path transform="matrix(1 0 0 -1 0 841.89)" d="m262.65 386.82 0.1289-8.082"/>
   <path transform="matrix(1 0 0 -1 0 841.89)" d="m271.12 378.86v-8.9844"/>
   <path transform="matrix(1 0 0 -1 0 841.89)" d="m263.42 369.62v-7.9531"/>
   <path transform="matrix(1 0 0 -1 0 841.89)" d="m270.86 361.67v-6.2891"/>
   <path transform="matrix(1 0 0 -1 0 841.89)" d="m324.76 361.79 0.12891-6.4141"/>
   <path transform="matrix(1 0 0 -1 0 841.89)" d="m341.7 361.79 0.12891-6.2852"/>
   <path transform="matrix(1 0 0 -1 0 841.89)" d="m341.95 378.73v-8.5977"/>
   <path transform="matrix(1 0 0 -1 0 841.89)" d="m323.99 378.99 0.25781-9.3672"/>
  </g>
  <g stroke="#000" stroke-miterlimit="22.926">
   <g stroke-width="1.762">
    <path transform="matrix(1 0 0 -1 0 841.89)" d="m261.62 443.66c-6.9453-0.17188-6.9141-11.633-0.77344-12.062l80.332 0.25781c6.6055-0.85547 7.6172 12.531-1.5391 11.934z" fill="#fff" fill-rule="evenodd"/>
    <path transform="matrix(1 0 0 -1 0 841.89)" d="m266.24 495.76-10.008 6.4141-0.25781 22.844h6.6719l-0.25391-14.375h8.2109v14.375h11.805v-14.629h7.6992l-0.17968 14.84 15.398 0.18359 0.1836-14.512h7.4414v14.371h14.371v-14.371h9.0469l-0.18359 14.555h6.8555l-0.1836-22.074-7.8359-7.6211z" fill="#fff" fill-rule="evenodd"/>
    <path transform="matrix(1 0 0 -1 0 841.89)" d="m255.98 502.95 86.734 0.1836" fill="none"/>
   </g>
   <path transform="matrix(1 0 0 -1 0 841.89)" d="m280.05 355.82h38.109l-0.54297 30.852c0.4336 21.461-35.082 26.598-37.02 0.36328z" fill="#a67a4f" fill-rule="evenodd" stroke-width="2.643"/>
  </g>
  <g fill="none" stroke="#000" stroke-miterlimit="22.926" stroke-width=".881">
   <path transform="matrix(1 0 0 -1 0 841.89)" d="m290.04 401.73 8.7109-8.3476 9.0742 7.9844"/>
   <path transform="matrix(1 0 0 -1 0 841.89)" d="m287.32 399.37 11.613-10.164 11.977 10.164"/>
   <path transform="matrix(1 0 0 -1 0 841.89)" d="m284.41 397.01 14.336-12.34 14.703 12.16"/>
   <path transform="matrix(1 0 0 -1 0 841.89)" d="m282.41 393.38 16.516-13.246 16.512 13.246"/>
   <path transform="matrix(1 0 0 -1 0 841.89)" d="m281.51 389.39 17.422-14.156 17.965 14.336"/>
   <path transform="matrix(1 0 0 -1 0 841.89)" d="m281.69 384.49 17.242-13.793 18.328 14.336"/>
   <path transform="matrix(1 0 0 -1 0 841.89)" d="m280.96 380.5 17.965-14.699 18.691 15.426"/>
   <path transform="matrix(1 0 0 -1 0 841.89)" d="m281.14 375.78 17.785-14.156 18.328 14.699"/>
   <path transform="matrix(1 0 0 -1 0 841.89)" d="m280.78 372.69 17.965-15.062 18.148 13.43"/>
   <path transform="matrix(1 0 0 -1 0 841.89)" d="m280.6 367.98 14.336-12.523 7.0781 0.18359 15.062 11.25"/>
   <path transform="matrix(1 0 0 -1 0 841.89)" d="m280.05 364.16 9.9805-8.8906h17.969l9.0742 6.7148"/>
  </g>
  <path d="m272.98 439.98 7.0781-0.17969v-10.887c1.457-4.1524-7.3945-6.2734-7.4414 0z" fill="#211e1e" fill-rule="evenodd"/>
  <path transform="matrix(1 0 0 -1 0 841.89)" d="m297.3 355.64v48.816h3.4453l0.18359-48.816z" fill="#a67a4f" fill-rule="evenodd" stroke="#000" stroke-miterlimit="22.926" stroke-width=".881"/>
  <path transform="matrix(1 0 0 -1 0 841.89)" d="m280.05 355.82h38.109l-0.54297 30.852c0.4336 21.461-35.082 26.598-37.02 0.36328z" fill="none" stroke="#000" stroke-miterlimit="22.926" stroke-width="2.643"/>
  <g fill="#211e1e" fill-rule="evenodd">
   <path d="m296.98 432.4 7.0781-0.18359v-10.887c0.8164-3.8945-7.3984-6.2734-7.4414 0z"/>
   <path d="m320.93 440.02 7.0781-0.17969v-10.891c1.4609-3.7617-7.3945-6.2695-7.4375 0z"/>
   <path d="m318.03 389.93 7.0781-0.21875v-13.121c0.71484-4.3516-7-7.5547-7.4414 0z"/>
   <path d="m296.98 379.09 7.0781-0.21875v-13.121c1.375-3.4531-7.0195-7.5586-7.4414 0z"/>
   <path d="m276.29 389.98 7.0781-0.0899v-13.25c1.207-3.4531-6.8516-7.5547-7.4414 0z"/>
  </g>
  <g fill="none" stroke="#000" stroke-miterlimit="22.926" stroke-width=".881">
   <path transform="matrix(1 0 0 -1 0 841.89)" d="m340.8 428.91c0.0859-2.4805 0.17188-9.7734 0.25782-7.4414"/>
   <path transform="matrix(1 0 0 -1 0 841.89)" d="m333.48 387.07v-8.2109"/>
   <path transform="matrix(1 0 0 -1 0 841.89)" d="m333.48 370.39v-8.2109"/>
   <path transform="matrix(1 0 0 -1 0 841.89)" d="m279.52 431.99 0.25781-2.9531"/>
   <path transform="matrix(1 0 0 -1 0 841.89)" d="m263.23 431.99-0.1289-3.207"/>
   <path transform="matrix(1 0 0 -1 0 841.89)" d="m297.11 432.12-0.12891-2.6953"/>
   <path transform="matrix(1 0 0 -1 0 841.89)" d="m315.2 431.86v-2.3086"/>
   <path transform="matrix(1 0 0 -1 0 841.89)" d="m333.55 431.73-0.1289-2.8242"/>
   <path transform="matrix(1 0 0 -1 0 841.89)" d="m270.54 446.1-0.12891-2.8203"/>
   <path transform="matrix(1 0 0 -1 0 841.89)" d="m289.41 445.98-0.12891-2.8242"/>
   <path transform="matrix(1 0 0 -1 0 841.89)" d="m306.34 446.1-0.12891-2.8203"/>
   <path transform="matrix(1 0 0 -1 0 841.89)" d="m325.72 445.98-0.125-2.8242"/>
  </g>
  <g fill-rule="evenodd">
   <path d="m261.19 525.01c-6.2852-1.043-13.367-4.7617-18.566-9.7422-3.7109-3.5586-10.133-5.9648-16.023-6.0078-5.582-0.0391-9.9844 1.8984-14.664 6.4648-6.3008 6.1484-14.449 9.6055-21.008 8.9102-5.7422-0.60547-11.824-3.5156-17.523-8.3867-6.3242-5.4062-8.7852-6.7422-13.152-7.1406-3.5195-0.32421-6.5156 0.33204-10.965 2.3867l-3.4102 1.5781-1.1016-4.9766c-1.0859-4.8984-2.1055-11.762-2.6758-17.941l-0.28906-3.1562h315.75l-0.0117 2.2227c-0.0195 5.125-1.9453 16.777-3.7422 22.621l-0.67188 2.1797-3.6016-1.8047c-4.1992-2.0977-6.5938-2.7656-9.9258-2.7578-3.5156 4e-3 -6.1836 1.1992-11.727 5.2461-8.5391 6.2383-14.113 8.6523-20.961 9.0898-6.8398 0.4336-13.652-2.0664-19.414-7.1211-7.1484-6.2812-11.164-7.9805-17.887-7.5781-6.043 0.36328-8.9062 1.6836-15.824 7.2969-4.0234 3.2617-9.2969 6.1133-13.137 7.1016-3.0156 0.77735-8.6602 0.77344-11.82-4e-3 -3.5977-0.88672-10.707-4.7578-14.668-7.9883-4.1602-3.3945-7.7539-5.3086-11.496-6.1289-5.6094-1.2266-12.367 1.1719-18.496 6.5586-4.1094 3.6133-8.5 6.3438-12.473 7.7578-3.0859 1.1016-8.0664 1.7266-10.512 1.3203z" fill="#00a14a"/>
   <path d="m295.27 614.3c-3.1836-3.3906-10.062-5.6445-14.812-7.3789-7.6328-2.7891-12.637-5.1797-30.535-8.1484-23.34-6.5938-29.457-4.8086-37.32-12.707-3.3086-3.3203-4.9688-3.6602-6.8984-7.6641-2.4062-4.9844-3.7422-9.8398-4.4531-16.199-0.24218-2.1797-0.52343-4.0469-0.62109-4.1484-0.0977-0.10156-3.1797-0.0976-6.8477-1.0625-16.211-4.2656-27.914-11.852-36.48-21.793-2.9726-3.4531-2.7695-3.8789 1.6719-3.5195 3.6797 0.30078 9.9766 1.6133 17.539 6.9844 9.5234 6.7656 12.734 9.5039 18.848 7.9258 3.4883-0.90234 5.8359-2.0938 13.996-7.1016 7.4453-4.5703 11.098-6.2148 15.625-7.0312 6.1406-1.1055 11.164 0.67968 18.695 6.6523 7.918 6.2812 13.02 8.5312 19.312 8.5312 5.8984 0 11.383-2.207 17.699-7.125 5.9102-4.6016 14.371-8.0625 19.66-8.0508 3.9258 0.0117 8.2305 1.6445 12.035 4.5664 2.4492 1.8789 8.5117 5.5586 12.602 7.6484 8.6484 4.4219 16.379 2.9336 27.914-5.375 7.707-5.5508 12.262-7.1953 18.543-6.6992 5.6055 0.44532 11.211 2.8633 19.938 8.6016 8.9648 5.8984 13.32 7.2812 18.855 5.9961 3.1328-0.72656 8.3984-5.0195 15.238-9.6836 6.3008-4.293 10.141-4.5781 14.586-4.9258l3.0976-0.24219-2.4336 2.543c-8.9219 9.3242-24.004 18.543-41.277 24.312-3.5 1.168-3.4336 0.62109-3.4336 1.9102 0 2.5195-1.8281 10.383-3.1641 13.625-2.6602 6.4414-6.4258 11.062-12.016 14.742-6.4336 4.2383-13.25 6.3203-31.969 9.7617-20.531 3.7773-28.277 5.8867-36.953 10.059-4.7344 2.2734-7.9727 4.6328-9.4883 6.3242-1.0898 1.2188-5.6094 0.31641-7.1524-1.3281z" fill="#00a14a"/>
   <path d="m145.64 513.21c7.6719-3.9688 15.43-7.3242 24.719 0.0234 14.344 13.02 29.016 15.012 44.184 0.043 4.8047-3.0469 12.066-7.8438 26.262 0.0273 14.582 13.441 29.816 15.414 46.039 0.0469 7.3555-4.6016 15.223-6.8164 25.027 0.0273 15.449 13.195 30.488 13.211 45.113 0.043 11.77-7.8594 20.621-4.457 26.883 0.0273 12.68 12.184 27.488 13.395 45.109 0.0469 8.8867-7.3945 16.52-3.5703 23.793 0.33203-0.20703 7.8555-6.5664 14.082-10.504 19.465-6.625-0.28125-11.602 1.6289-15.758 4.6367-21.426 15.715-24.262 12.016-42.023 0.3086-8.125-4.1211-17.738-8.6211-30.281 0.30859-20.816 17.105-29.238 6.5664-39.859 0.92578-11.348-10.07-21.164-5.5938-30.898-0.30859-15.137 13.875-28.008 10.758-39.859 0-12.145-10.152-22.113-5.7695-31.824 0.30859-19.66 13.137-23.219 9.6445-38.625-1.543-5.4258-3.1016-10.605-7.0703-17.609-4.6367-5.2695-7.0898-8.7383-13.816-9.8906-20.082z" fill="#fff"/>
  </g>
  <g fill="#00a14a" fill-rule="evenodd" stroke="#000" stroke-miterlimit="22.926" stroke-width=".375">
   <path transform="matrix(1 0 0 -1 0 841.89)" d="m265.88 553.04c-7.8242 1.6875-14.527 4.9414-19.445 10.703 9.6836-0.0469 15.578-4.2617 19.445-10.703z"/>
   <path transform="matrix(1 0 0 -1 0 841.89)" d="m248.18 545.39c-12.059-3.1016-17.027 0.89062-23.598 3.2773 7.7812 0.66016 15.285 7.2031 23.598-3.2773z"/>
   <path transform="matrix(1 0 0 -1 0 841.89)" d="m266.54 552.39c1.1992-10.176-3.9844-14.949-10.27-18.789 1.0938 7.5352 2.8633 14.699 10.27 18.789z"/>
   <path transform="matrix(1 0 0 -1 0 841.89)" d="m256.48 548.89c-8.5273-6.5547-7.7773-13.109-7.8633-19.664 5.5898 4.9844 11.867 9.6016 7.8633 19.664z"/>
   <path transform="matrix(1 0 0 -1 0 841.89)" d="m244.91 541.24c-7.5391-6.2734-5.6836-13.273-6.1172-20.098 5.125 6.1211 11.625 11.758 6.1172 20.098z"/>
   <path transform="matrix(1 0 0 -1 0 841.89)" d="m241.85 540.37c-11.902 6.4336-18.043 0.70312-24.906-3.4961 8.1172-1.9766 16.219-4.1719 24.906 3.4961z"/>
   <path transform="matrix(1 0 0 -1 0 841.89)" d="m224.37 520.49c9.0391 2 12.992 8.6641 15.078 17.043-10.031-1.8555-14.953-7.6172-15.078-17.043z"/>
   <path transform="matrix(1 0 0 -1 0 841.89)" d="m257.58 550.86c-11.312 11.867-21.215 8.0039-27.094 5.2422 8.6758-3.5234 17.289-7.375 27.094-5.2422z"/>
   <path transform="matrix(1 0 0 -1 0 841.89)" d="m269.21 554.09c-2.5664-0.0899-5.1016-0.61719-7.5469-1.4062-9.7695-3.1641-18.324-10.734-22.875-14.039-0.35938-0.19531-0.58594-0.57422-0.58594-0.98828 0-0.62109 0.5039-1.125 1.125-1.125 0.28906 0 0.5664 0.11328 0.77344 0.3086 4.7734 3.4648 13.113 10.758 22.242 13.711 4.5664 1.4766 9.2812 1.8672 13.875 0.25782 4.5977-1.6055 9.1719-5.2305 13.406-12.117 0.1836-0.40235 0.58594-0.66406 1.0274-0.66406 0.62109 0 1.125 0.5039 1.125 1.125 0 0.25781-0.0899 0.51171-0.25391 0.71093-4.4297 7.2031-9.418 11.273-14.578 13.078-2.5781 0.90234-5.1641 1.2383-7.7344 1.1484z"/>
  </g>
  <g>
   <path transform="matrix(1 0 0 -1 0 841.89)" d="m280.74 547.36 12.891 1.3086c10.18-2.418 20.457-23.309 45.008-15.512 15.16 6.9258 29.504 2.4609 44.133 1.9648-1.6094 6.5625-10.645 3.8476-16.387 5.2461 3.3516 1.3281 6.6992 0.33594 10.051 5.8984-13.371 0.26172-28.359-1.7461-39.109 2.1836 4.7539 1.418 9.4922 2.8984 13.109 8.3047-3.2422-1.5664-6.8828-1.9258-10.707-1.75 6.1797 0.57422 11.707 2.0195 14.422 7.2109l-7.8672-1.3125c5.9883 0.082 8.4492 3.5039 12.453 5.4648-2.043 2.4531-4.8438 1.1172-7.4258 0.87109 8.5156-1.25 10.477 5.2812 14.855 7.6484-8.4688 3.582-17.949-6.9219-26.766-6.7969-7 0.0976-12.242-0.22657-16.492-7.1875 3 4.3438 7.043 7.8359 16.387 6.9922-0.5586 4.1914-2.4922 2.8477-4.1524 2.6211 2.2383 1.0273 5.5664 0.6875 5.6797 4.3711h-3.7148l7.6484 2.8398c3.5781 1.0625 4.0391 2.7461 4.8047 4.3711-0.93359 2.0547-5.7773-1.3633-9.3945-3.0586 5.5078 2.7383 11.332 5.4336 12.891 8.7383-4.3945 2.457-11.281 0.15625-17.258-7.8672-8.2656-7.957-18.242-3.2891-26-12.672-1.9688-2.2422-3.1758-4.3633 1.7461-5.4609 5.375-0.40235 5.1211-4.0234 6.7734-6.5547-9.3594-2.3945-17.078-1.2422-22.941 3.9336-3.6211 2.5195-9.0742 1.5234-9.3945-7.2109z" fill="#fff" fill-rule="evenodd" stroke="#000" stroke-miterlimit="22.926" stroke-width="1.5001"/>
   <path d="m291.91 287.1c0 0.6211-0.5039 1.125-1.125 1.125-0.62109 0-1.125-0.5039-1.125-1.125 0-0.62109 0.50391-1.125 1.125-1.125 0.6211 0 1.125 0.50391 1.125 1.125z" fill-rule="evenodd"/>
   <path d="m201.82 231.56-44.379 38.969c7.9453 18.812 11.305 38.117 6.0508 55.996-4.4258 15.066-14.926 29.035-33.883 40.727 20.148 25.598 17.715 56.621 15.34 86.883-3.3789 43.055-6.6328 84.523 58.664 104.49l1.3086 0.40234 0.10547 1.3516c2.2969 29.094 22.234 32.5 45.215 36.422 16.574 2.832 34.652 5.9219 49.477 18.465 14.82-12.543 32.898-15.633 49.473-18.465 22.98-3.9219 42.922-7.3281 45.215-36.422l0.10547-1.3516 1.3086-0.40234c65.301-19.969 62.043-61.438 58.664-104.49-2.375-30.262-4.8047-61.285 15.34-86.883-18.953-11.691-29.453-25.66-33.883-40.727-5.2539-17.879-1.8945-37.184 6.0508-55.996l-44.375-38.969c-30.168 17.805-64.039 26.707-97.898 26.707-33.863 0-67.734-8.9023-97.898-26.707zm-48.09 36.922 47.641-41.832 1.2461 0.7461c29.836 17.914 63.465 26.871 97.102 26.871 33.633 0 67.262-8.957 97.098-26.871l1.2461-0.7461c16.246 14.262 32.492 28.527 48.734 42.793l-0.57422 1.332c-8.0117 18.438-11.535 37.328-6.4531 54.625 4.3047 14.645 14.816 28.246 34.062 39.609l2.0274 1.1953-1.5117 1.8047c-20.676 24.68-18.246 55.637-15.879 85.812 3.4844 44.391 6.8281 87.148-60.199 108.21-3.0195 30.953-24.129 34.562-48.406 38.707-16.531 2.8242-34.605 5.9141-48.809 18.66l-1.3359 1.1992-1.3359-1.1992c-14.203-12.746-32.281-15.836-48.812-18.66-24.273-4.1445-45.383-7.75-48.406-38.707-67.027-21.062-63.684-63.82-60.199-108.21 2.3672-30.176 4.7969-61.133-15.879-85.812l-1.5117-1.8047 2.0274-1.1953c19.246-11.363 29.762-24.965 34.062-39.609 5.082-17.297 1.5586-36.188-6.4492-54.625l-0.57813-1.332z" fill="#fff"/>
  </g>
 </g>
</svg>
